<svg width="1449" height="2826" viewBox="0 0 1449 2826" fill="none" xmlns="http://www.w3.org/2000/svg">
<rect x="6.81934" y="1" width="1441.18" height="887.186" stroke="#00FFF0" stroke-width="2"/>
<rect x="554.159" y="1937" width="886.025" height="547.34" transform="rotate(90 554.159 1937)" stroke="#00FFF0" stroke-width="2"/>
<rect x="554.159" y="1937" width="887.186" height="547.34" transform="rotate(90 554.159 1937)" stroke="#00FFF0" stroke-width="2"/>
<rect x="554.159" y="2272.8" width="547.34" height="335.798" transform="rotate(-180 554.159 2272.8)" stroke="#00FFF0" stroke-width="2"/>
<rect x="6.81934" y="1937" width="206.33" height="125.69" stroke="#00FFF0" stroke-width="2"/>
<rect x="6.81934" y="2272.8" width="335.798" height="206.33" transform="rotate(-90 6.81934 2272.8)" stroke="#00FFF0" stroke-width="2"/>
<line x1="1001.74" y1="1936" x2="1002.83" y2="2825.18" stroke="#FF0000" stroke-dasharray="2 2"/>
<line x1="1308.67" y1="1936" x2="1309.77" y2="2825.18" stroke="#FF0000" stroke-dasharray="2 2"/>
<line x1="1377.34" y1="1936" x2="1378.43" y2="2825.18" stroke="#FF0000" stroke-dasharray="2 2"/>
<line x1="417.749" y1="1936" x2="418.843" y2="2825.18" stroke="#FF0000" stroke-dasharray="2 2"/>
<line x1="485.864" y1="1936" x2="486.958" y2="2825.18" stroke="#FF0000" stroke-dasharray="2 2"/>
<line x1="349.633" y1="1936" x2="350.727" y2="2825.18" stroke="#FF0000" stroke-dasharray="2 2"/>
<line x1="143.283" y1="1936" x2="144.377" y2="2825.18" stroke="#FF0000" stroke-dasharray="2 2"/>
<line x1="75.167" y1="1936" x2="76.2607" y2="2825.18" stroke="#FF0000" stroke-dasharray="2 2"/>
<line x1="280.516" y1="1936" x2="281.609" y2="2825.18" stroke="#FF0000" stroke-dasharray="2 2"/>
<line x1="212.4" y1="1936" x2="213.494" y2="2825.18" stroke="#FF0000" stroke-dasharray="2 2"/>
<line y1="-0.5" x2="1259.85" y2="-0.5" transform="matrix(0.708427 0.705784 -0.707634 0.706579 555.483 1936)" stroke="#FF0000" stroke-dasharray="2 2"/>
<line y1="-0.5" x2="523.015" y2="-0.5" transform="matrix(0.526691 0.850057 -0.851286 0.524702 280.016 1936)" stroke="#FF0000" stroke-dasharray="2 2"/>
<line y1="-0.5" x2="260.294" y2="-0.5" transform="matrix(0.523375 0.852102 -0.853319 0.521389 143.784 1936)" stroke="#FF0000" stroke-dasharray="2 2"/>
<line y1="-0.5" x2="262.196" y2="-0.5" transform="matrix(0.527218 0.84973 -0.850961 0.525229 5.5498 2157.8)" stroke="#FF0000" stroke-dasharray="2 2"/>
<line y1="-0.5" x2="262.196" y2="-0.5" transform="matrix(0.527218 0.84973 -0.850961 0.525229 5.5498 2601.39)" stroke="#FF0000" stroke-dasharray="2 2"/>
<line y1="-0.5" x2="260.294" y2="-0.5" transform="matrix(0.523375 0.852102 -0.853319 0.521389 143.784 2379.59)" stroke="#FF0000" stroke-dasharray="2 2"/>
<line y1="-0.5" x2="260.294" y2="-0.5" transform="matrix(0.523375 0.852102 -0.853319 0.521389 418.25 1936)" stroke="#FF0000" stroke-dasharray="2 2"/>
<line y1="-0.5" x2="260.294" y2="-0.5" transform="matrix(0.523375 0.852102 -0.853319 0.521389 281.018 2158.8)" stroke="#FF0000" stroke-dasharray="2 2"/>
<line y1="-0.5" x2="260.294" y2="-0.5" transform="matrix(0.523375 0.852102 -0.853319 0.521389 281.018 2602.39)" stroke="#FF0000" stroke-dasharray="2 2"/>
<line y1="-0.5" x2="260.294" y2="-0.5" transform="matrix(0.523375 0.852102 -0.853319 0.521389 418.25 2379.59)" stroke="#FF0000" stroke-dasharray="2 2"/>
<line y1="-0.5" x2="523.015" y2="-0.5" transform="matrix(0.526691 0.850057 -0.851286 0.524702 5.5498 2380.59)" stroke="#FF0000" stroke-dasharray="2 2"/>
<line y1="-0.5" x2="1045.5" y2="-0.5" transform="matrix(0.525999 0.850485 -0.851712 0.52401 5.5498 1936)" stroke="#FF0000" stroke-dasharray="2 2"/>
<line y1="-0.5" x2="1259.85" y2="-0.5" transform="matrix(-0.708427 0.705784 -0.707634 -0.706579 1448 1936)" stroke="#FF0000" stroke-dasharray="2 2"/>
<line y1="-0.5" x2="1045.5" y2="-0.5" transform="matrix(-0.525999 0.850485 -0.851712 -0.52401 555.483 1936)" stroke="#FF0000" stroke-dasharray="2 2"/>
<line x1="5.81934" y1="2380.09" x2="1449" y2="2380.09" stroke="#FF0000" stroke-dasharray="2 2"/>
<line x1="5.81934" y1="2380.09" x2="1449" y2="2380.09" stroke="#FF0000" stroke-dasharray="2 2"/>
<line x1="5.81934" y1="2157.22" x2="1449" y2="2157.22" stroke="#FF0000" stroke-dasharray="2 2"/>
<line x1="5.81934" y1="2602.97" x2="1449" y2="2602.97" stroke="#FF0000" stroke-dasharray="2 2"/>
<line x1="5.81934" y1="2272.14" x2="1449" y2="2272.14" stroke="#FF0000" stroke-dasharray="2 2"/>
<line x1="5.81934" y1="2714.41" x2="1449" y2="2714.41" stroke="#FF0000" stroke-dasharray="2 2"/>
<line x1="5.81934" y1="2045.78" x2="1449" y2="2045.78" stroke="#FF0000" stroke-dasharray="2 2"/>
<line x1="3.32723e-08" y1="1990.06" x2="1443.18" y2="1990.06" stroke="#FF0000" stroke-dasharray="2 2"/>
<line x1="1.16406" y1="2214.1" x2="1444.34" y2="2214.1" stroke="#FF0000" stroke-dasharray="2 2"/>
<line x1="1.16406" y1="2436.97" x2="1444.34" y2="2436.97" stroke="#FF0000" stroke-dasharray="2 2"/>
<line x1="1.16406" y1="2657.53" x2="1444.34" y2="2657.53" stroke="#FF0000" stroke-dasharray="2 2"/>
<line x1="3.32723e-08" y1="2102.66" x2="1443.18" y2="2102.66" stroke="#FF0000" stroke-dasharray="2 2"/>
<line x1="1.16406" y1="2325.53" x2="1444.34" y2="2325.53" stroke="#FF0000" stroke-dasharray="2 2"/>
<line x1="1.16406" y1="2548.41" x2="1444.34" y2="2548.41" stroke="#FF0000" stroke-dasharray="2 2"/>
<line x1="1.16406" y1="2771.29" x2="1444.34" y2="2771.29" stroke="#FF0000" stroke-dasharray="2 2"/>
<line x1="5.81934" y1="2492.69" x2="1449" y2="2492.69" stroke="#FF0000" stroke-dasharray="2 2"/>
<line y1="-0.5" x2="521.639" y2="-0.5" transform="matrix(-0.526161 0.850385 -0.851612 -0.524172 280.016 1936)" stroke="#FF0000" stroke-dasharray="2 2"/>
<line y1="-0.5" x2="260.819" y2="-0.5" transform="matrix(-0.526161 0.850385 -0.851612 -0.524172 142.783 1936)" stroke="#FF0000" stroke-dasharray="2 2"/>
<line y1="-0.5" x2="260.819" y2="-0.5" transform="matrix(-0.526161 0.850385 -0.851612 -0.524172 554.481 2157.8)" stroke="#FF0000" stroke-dasharray="2 2"/>
<line y1="-0.5" x2="260.819" y2="-0.5" transform="matrix(-0.526161 0.850385 -0.851612 -0.524172 554.481 2601.39)" stroke="#FF0000" stroke-dasharray="2 2"/>
<line y1="-0.5" x2="260.819" y2="-0.5" transform="matrix(-0.526161 0.850385 -0.851612 -0.524172 280.016 2157.8)" stroke="#FF0000" stroke-dasharray="2 2"/>
<line y1="-0.5" x2="260.819" y2="-0.5" transform="matrix(-0.526161 0.850385 -0.851612 -0.524172 280.016 2601.39)" stroke="#FF0000" stroke-dasharray="2 2"/>
<line y1="-0.5" x2="260.819" y2="-0.5" transform="matrix(-0.526161 0.850385 -0.851612 -0.524172 142.783 2379.59)" stroke="#FF0000" stroke-dasharray="2 2"/>
<line y1="-0.5" x2="260.819" y2="-0.5" transform="matrix(-0.526161 0.850385 -0.851612 -0.524172 417.248 1936)" stroke="#FF0000" stroke-dasharray="2 2"/>
<line y1="-0.5" x2="260.819" y2="-0.5" transform="matrix(-0.526161 0.850385 -0.851612 -0.524172 417.248 2379.59)" stroke="#FF0000" stroke-dasharray="2 2"/>
<line y1="-0.5" x2="521.639" y2="-0.5" transform="matrix(-0.526161 0.850385 -0.851612 -0.524172 554.481 2379.59)" stroke="#FF0000" stroke-dasharray="2 2"/>
</svg>
