<svg width="91" height="60" viewBox="0 0 91 60" fill="none" xmlns="http://www.w3.org/2000/svg">
<path fill-rule="evenodd" clip-rule="evenodd" d="M45.5 1.30908C56.3497 1.30908 66.7244 6.46746 76.3929 14.9427C79.6914 17.8341 82.6755 20.921 85.3024 24.0091C86.8876 25.8726 88.013 27.3385 88.6292 28.2118L90 30.1545L88.6292 32.0973C88.013 32.9706 86.8876 34.4365 85.3024 36.3C82.6755 39.3881 79.6914 42.475 76.3929 45.3664C66.7244 53.8416 56.3497 59 45.5 59C34.6503 59 24.2756 53.8416 14.6071 45.3664C11.3086 42.475 8.32452 39.3881 5.69758 36.3C4.11241 34.4365 2.98696 32.9706 2.37075 32.0973L1 30.1545L2.37075 28.2118C2.98696 27.3385 4.11241 25.8726 5.69758 24.0091C8.32452 20.921 11.3086 17.8341 14.6071 14.9427C24.2756 6.46746 34.6503 1.30908 45.5 1.30908ZM79.0033 28.4133C76.5981 25.5859 73.8636 22.7572 70.8635 20.1274C62.5361 12.8278 53.8747 8.52123 45.5011 8.52123C37.1274 8.52123 28.466 12.8278 20.1386 20.1274C17.1386 22.7572 14.404 25.5859 11.9989 28.4133C11.4794 29.024 10.9994 29.6066 10.5605 30.1553C10.9994 30.704 11.4794 31.2866 11.9989 31.8973C14.404 34.7247 17.1386 37.5534 20.1386 40.1832C28.466 47.4829 37.1274 51.7894 45.5011 51.7894C53.8747 51.7894 62.5361 47.4829 70.8635 40.1832C73.8636 37.5534 76.5981 34.7247 79.0033 31.8973C79.5227 31.2866 80.0027 30.704 80.4416 30.1553C80.0027 29.6066 79.5227 29.024 79.0033 28.4133ZM29.5889 30.1539C29.5889 38.1194 36.7126 44.5766 45.5001 44.5766C54.2877 44.5766 61.4114 38.1194 61.4114 30.1539C61.4114 22.1884 54.2877 15.7312 45.5001 15.7312C36.7126 15.7312 29.5889 22.1884 29.5889 30.1539ZM53.4562 30.1547C53.4562 34.1374 49.8943 37.3661 45.5006 37.3661C41.1068 37.3661 37.5449 34.1374 37.5449 30.1547C37.5449 26.172 41.1068 22.9433 45.5006 22.9433C49.8943 22.9433 53.4562 26.172 53.4562 30.1547Z" fill="#E8E8E8"/>
<path d="M76.3929 14.9427L76.0633 15.3187L76.3929 14.9427ZM85.3024 24.0091L85.6833 23.6851V23.6851L85.3024 24.0091ZM88.6292 28.2118L89.0378 27.9235L88.6292 28.2118ZM90 30.1545L90.4085 30.4428L90.6119 30.1545L90.4085 29.8663L90 30.1545ZM88.6292 32.0973L89.0378 32.3855L88.6292 32.0973ZM85.3024 36.3L85.6833 36.6239L85.3024 36.3ZM76.3929 45.3664L76.0633 44.9904L76.3929 45.3664ZM14.6071 45.3664L14.2775 45.7424L14.6071 45.3664ZM5.69758 36.3L6.07843 35.976L5.69758 36.3ZM2.37075 32.0973L2.7793 31.809H2.7793L2.37075 32.0973ZM1 30.1545L0.591458 29.8663L0.388068 30.1545L0.591458 30.4428L1 30.1545ZM2.37075 28.2118L2.7793 28.5001H2.7793L2.37075 28.2118ZM5.69758 24.0091L5.31673 23.6851L5.69758 24.0091ZM14.6071 14.9427L14.9367 15.3187L14.6071 14.9427ZM70.8635 20.1274L71.1931 19.7514L70.8635 20.1274ZM79.0033 28.4133L78.6224 28.7373L79.0033 28.4133ZM20.1386 20.1274L19.8091 19.7514L20.1386 20.1274ZM11.9989 28.4133L11.618 28.0893L11.9989 28.4133ZM10.5605 30.1553L10.1701 29.843L9.9203 30.1553L10.1701 30.4676L10.5605 30.1553ZM11.9989 31.8973L11.618 32.2213L11.9989 31.8973ZM20.1386 40.1832L19.8091 40.5592V40.5592L20.1386 40.1832ZM70.8635 40.1832L71.1931 40.5592V40.5592L70.8635 40.1832ZM79.0033 31.8973L78.6224 31.5733L79.0033 31.8973ZM80.4416 30.1553L80.832 30.4676L81.0818 30.1553L80.832 29.843L80.4416 30.1553ZM76.7225 14.5667C67.0021 6.04601 56.5147 0.809082 45.5 0.809082V1.80908C56.1847 1.80908 66.4466 6.88891 76.0633 15.3187L76.7225 14.5667ZM85.6833 23.6851C83.042 20.5802 80.041 17.4756 76.7225 14.5667L76.0633 15.3187C79.3418 18.1926 82.3089 21.2617 84.9216 24.3331L85.6833 23.6851ZM89.0378 27.9235C88.4107 27.0348 87.2754 25.5568 85.6833 23.6851L84.9216 24.3331C86.4998 26.1884 87.6154 27.6422 88.2207 28.5001L89.0378 27.9235ZM90.4085 29.8663L89.0378 27.9235L88.2207 28.5001L89.5915 30.4428L90.4085 29.8663ZM89.0378 32.3855L90.4085 30.4428L89.5915 29.8663L88.2207 31.809L89.0378 32.3855ZM85.6833 36.6239C87.2754 34.7523 88.4107 33.2743 89.0378 32.3855L88.2207 31.809C87.6154 32.6669 86.4998 34.1207 84.9216 35.976L85.6833 36.6239ZM76.7225 45.7424C80.041 42.8335 83.042 39.7289 85.6833 36.6239L84.9216 35.976C82.3089 39.0473 79.3418 42.1165 76.0633 44.9904L76.7225 45.7424ZM45.5 59.5C56.5147 59.5 67.0021 54.2631 76.7225 45.7424L76.0633 44.9904C66.4466 53.4202 56.1847 58.5 45.5 58.5V59.5ZM14.2775 45.7424C23.9979 54.2631 34.4853 59.5 45.5 59.5V58.5C34.8153 58.5 24.5534 53.4202 14.9367 44.9904L14.2775 45.7424ZM5.31673 36.6239C7.95798 39.7289 10.959 42.8335 14.2775 45.7424L14.9367 44.9904C11.6582 42.1165 8.69107 39.0473 6.07843 35.976L5.31673 36.6239ZM1.96221 32.3855C2.5893 33.2743 3.72462 34.7523 5.31673 36.6239L6.07843 35.976C4.50019 34.1207 3.38461 32.6669 2.7793 31.809L1.96221 32.3855ZM0.591458 30.4428L1.96221 32.3855L2.7793 31.809L1.40854 29.8663L0.591458 30.4428ZM1.96221 27.9235L0.591458 29.8663L1.40854 30.4428L2.7793 28.5001L1.96221 27.9235ZM5.31673 23.6851C3.72462 25.5568 2.5893 27.0348 1.96221 27.9235L2.7793 28.5001C3.38461 27.6422 4.50019 26.1884 6.07843 24.3331L5.31673 23.6851ZM14.2775 14.5667C10.959 17.4756 7.95798 20.5802 5.31673 23.6851L6.07843 24.3331C8.69107 21.2617 11.6582 18.1926 14.9367 15.3187L14.2775 14.5667ZM45.5 0.809082C34.4853 0.809082 23.9979 6.04601 14.2775 14.5667L14.9367 15.3187C24.5534 6.88891 34.8153 1.80908 45.5 1.80908V0.809082ZM70.5339 20.5034C73.5139 23.1156 76.2315 25.9266 78.6224 28.7373L79.3841 28.0893C76.9647 25.2452 74.2132 22.3988 71.1931 19.7514L70.5339 20.5034ZM45.5011 9.02123C53.7039 9.02123 62.2519 13.2435 70.5339 20.5034L71.1931 19.7514C62.8203 12.412 54.0455 8.02123 45.5011 8.02123V9.02123ZM20.4682 20.5034C28.7502 13.2435 37.2982 9.02123 45.5011 9.02123V8.02123C36.9566 8.02123 28.1818 12.412 19.8091 19.7514L20.4682 20.5034ZM12.3797 28.7373C14.7706 25.9266 17.4882 23.1156 20.4682 20.5034L19.8091 19.7514C16.7889 22.3988 14.0374 25.2452 11.618 28.0893L12.3797 28.7373ZM10.951 30.4676C11.3866 29.9229 11.8634 29.3442 12.3797 28.7373L11.618 28.0893C11.0954 28.7038 10.6121 29.2903 10.1701 29.843L10.951 30.4676ZM12.3797 31.5733C11.8634 30.9664 11.3866 30.3877 10.951 29.843L10.1701 30.4676C10.6121 31.0203 11.0954 31.6069 11.618 32.2213L12.3797 31.5733ZM20.4682 39.8073C17.4882 37.195 14.7706 34.384 12.3797 31.5733L11.618 32.2213C14.0374 35.0654 16.7889 37.9118 19.8091 40.5592L20.4682 39.8073ZM45.5011 51.2894C37.2982 51.2894 28.7502 47.0671 20.4682 39.8073L19.8091 40.5592C28.1818 47.8986 36.9566 52.2894 45.5011 52.2894V51.2894ZM70.5339 39.8073C62.2519 47.0671 53.7039 51.2894 45.5011 51.2894V52.2894C54.0455 52.2894 62.8203 47.8986 71.1931 40.5592L70.5339 39.8073ZM78.6224 31.5733C76.2315 34.384 73.5139 37.195 70.5339 39.8073L71.1931 40.5592C74.2132 37.9118 76.9647 35.0654 79.3841 32.2213L78.6224 31.5733ZM80.0511 29.843C79.6155 30.3877 79.1387 30.9664 78.6224 31.5733L79.3841 32.2213C79.9067 31.6069 80.39 31.0203 80.832 30.4676L80.0511 29.843ZM78.6224 28.7373C79.1387 29.3442 79.6155 29.9229 80.0511 30.4676L80.832 29.843C80.39 29.2903 79.9067 28.7038 79.3841 28.0893L78.6224 28.7373ZM45.5001 44.0766C36.9414 44.0766 30.0889 37.7981 30.0889 30.1539H29.0889C29.0889 38.4406 36.4838 45.0766 45.5001 45.0766V44.0766ZM60.9114 30.1539C60.9114 37.7981 54.0589 44.0766 45.5001 44.0766V45.0766C54.5165 45.0766 61.9114 38.4406 61.9114 30.1539H60.9114ZM45.5001 16.2312C54.0589 16.2312 60.9114 22.5097 60.9114 30.1539H61.9114C61.9114 21.8672 54.5165 15.2312 45.5001 15.2312V16.2312ZM30.0889 30.1539C30.0889 22.5097 36.9414 16.2312 45.5001 16.2312V15.2312C36.4838 15.2312 29.0889 21.8672 29.0889 30.1539H30.0889ZM45.5006 37.8661C50.1231 37.8661 53.9562 34.4586 53.9562 30.1547H52.9562C52.9562 33.8162 49.6655 36.8661 45.5006 36.8661V37.8661ZM37.0449 30.1547C37.0449 34.4586 40.878 37.8661 45.5006 37.8661V36.8661C41.3356 36.8661 38.0449 33.8162 38.0449 30.1547H37.0449ZM45.5006 22.4433C40.878 22.4433 37.0449 25.8507 37.0449 30.1547H38.0449C38.0449 26.4932 41.3356 23.4433 45.5006 23.4433V22.4433ZM53.9562 30.1547C53.9562 25.8507 50.1231 22.4433 45.5006 22.4433V23.4433C49.6655 23.4433 52.9562 26.4932 52.9562 30.1547H53.9562Z" fill="#FCFDF9"/>
</svg>
