<svg width="99" height="68" viewBox="0 0 99 68" fill="none" xmlns="http://www.w3.org/2000/svg">
<g filter="url(#filter0_d_141_956)">
<path fill-rule="evenodd" clip-rule="evenodd" d="M49.5 1.30908C60.3497 1.30908 70.7244 6.46746 80.3929 14.9427C83.6914 17.8341 86.6755 20.921 89.3024 24.0091C90.8876 25.8726 92.013 27.3385 92.6292 28.2118L94 30.1545L92.6292 32.0973C92.013 32.9706 90.8876 34.4365 89.3024 36.3C86.6755 39.3881 83.6914 42.475 80.3929 45.3664C70.7244 53.8416 60.3497 59 49.5 59C38.6503 59 28.2756 53.8416 18.6071 45.3664C15.3086 42.475 12.3245 39.3881 9.69758 36.3C8.11241 34.4365 6.98696 32.9706 6.37075 32.0973L5 30.1545L6.37075 28.2118C6.98696 27.3385 8.11241 25.8726 9.69758 24.0091C12.3245 20.921 15.3086 17.8341 18.6071 14.9427C28.2756 6.46746 38.6503 1.30908 49.5 1.30908ZM83.0033 28.4133C80.5981 25.5859 77.8636 22.7572 74.8635 20.1274C66.5361 12.8278 57.8747 8.52123 49.5011 8.52123C41.1274 8.52123 32.466 12.8278 24.1386 20.1274C21.1386 22.7572 18.404 25.5859 15.9989 28.4133C15.4794 29.024 14.9994 29.6066 14.5605 30.1553C14.9994 30.704 15.4794 31.2866 15.9989 31.8973C18.404 34.7247 21.1386 37.5534 24.1386 40.1832C32.466 47.4829 41.1274 51.7894 49.5011 51.7894C57.8747 51.7894 66.5361 47.4829 74.8635 40.1832C77.8636 37.5534 80.5981 34.7247 83.0033 31.8973C83.5227 31.2866 84.0027 30.704 84.4416 30.1553C84.0027 29.6066 83.5227 29.024 83.0033 28.4133ZM33.5889 30.1539C33.5889 38.1194 40.7126 44.5766 49.5001 44.5766C58.2877 44.5766 65.4114 38.1194 65.4114 30.1539C65.4114 22.1884 58.2877 15.7312 49.5001 15.7312C40.7126 15.7312 33.5889 22.1884 33.5889 30.1539ZM57.4562 30.1547C57.4562 34.1374 53.8943 37.3661 49.5006 37.3661C45.1068 37.3661 41.5449 34.1374 41.5449 30.1547C41.5449 26.172 45.1068 22.9433 49.5006 22.9433C53.8943 22.9433 57.4562 26.172 57.4562 30.1547Z" fill="#E8E8E8"/>
<path d="M80.3929 14.9427L80.0633 15.3187L80.3929 14.9427ZM89.3024 24.0091L89.6833 23.6851V23.6851L89.3024 24.0091ZM92.6292 28.2118L93.0378 27.9235L92.6292 28.2118ZM94 30.1545L94.4085 30.4428L94.6119 30.1545L94.4085 29.8663L94 30.1545ZM92.6292 32.0973L93.0378 32.3855L92.6292 32.0973ZM89.3024 36.3L89.6833 36.6239L89.3024 36.3ZM80.3929 45.3664L80.0633 44.9904L80.3929 45.3664ZM18.6071 45.3664L18.2775 45.7424L18.6071 45.3664ZM9.69758 36.3L10.0784 35.976L9.69758 36.3ZM6.37075 32.0973L6.7793 31.809H6.7793L6.37075 32.0973ZM5 30.1545L4.59146 29.8663L4.38807 30.1545L4.59146 30.4428L5 30.1545ZM6.37075 28.2118L6.7793 28.5001H6.7793L6.37075 28.2118ZM9.69758 24.0091L9.31673 23.6851L9.69758 24.0091ZM18.6071 14.9427L18.9367 15.3187L18.6071 14.9427ZM74.8635 20.1274L75.1931 19.7514L74.8635 20.1274ZM83.0033 28.4133L82.6224 28.7373L83.0033 28.4133ZM24.1386 20.1274L23.8091 19.7514L24.1386 20.1274ZM15.9989 28.4133L15.618 28.0893L15.9989 28.4133ZM14.5605 30.1553L14.1701 29.843L13.9203 30.1553L14.1701 30.4676L14.5605 30.1553ZM15.9989 31.8973L15.618 32.2213L15.9989 31.8973ZM24.1386 40.1832L23.8091 40.5592V40.5592L24.1386 40.1832ZM74.8635 40.1832L75.1931 40.5592V40.5592L74.8635 40.1832ZM83.0033 31.8973L82.6224 31.5733L83.0033 31.8973ZM84.4416 30.1553L84.832 30.4676L85.0818 30.1553L84.832 29.843L84.4416 30.1553ZM80.7225 14.5667C71.0021 6.04601 60.5147 0.809082 49.5 0.809082V1.80908C60.1847 1.80908 70.4466 6.88891 80.0633 15.3187L80.7225 14.5667ZM89.6833 23.6851C87.042 20.5802 84.041 17.4756 80.7225 14.5667L80.0633 15.3187C83.3418 18.1926 86.3089 21.2617 88.9216 24.3331L89.6833 23.6851ZM93.0378 27.9235C92.4107 27.0348 91.2754 25.5568 89.6833 23.6851L88.9216 24.3331C90.4998 26.1884 91.6154 27.6422 92.2207 28.5001L93.0378 27.9235ZM94.4085 29.8663L93.0378 27.9235L92.2207 28.5001L93.5915 30.4428L94.4085 29.8663ZM93.0378 32.3855L94.4085 30.4428L93.5915 29.8663L92.2207 31.809L93.0378 32.3855ZM89.6833 36.6239C91.2754 34.7523 92.4107 33.2743 93.0378 32.3855L92.2207 31.809C91.6154 32.6669 90.4998 34.1207 88.9216 35.976L89.6833 36.6239ZM80.7225 45.7424C84.041 42.8335 87.042 39.7289 89.6833 36.6239L88.9216 35.976C86.3089 39.0473 83.3418 42.1165 80.0633 44.9904L80.7225 45.7424ZM49.5 59.5C60.5147 59.5 71.0021 54.2631 80.7225 45.7424L80.0633 44.9904C70.4466 53.4202 60.1847 58.5 49.5 58.5V59.5ZM18.2775 45.7424C27.9979 54.2631 38.4853 59.5 49.5 59.5V58.5C38.8153 58.5 28.5534 53.4202 18.9367 44.9904L18.2775 45.7424ZM9.31673 36.6239C11.958 39.7289 14.959 42.8335 18.2775 45.7424L18.9367 44.9904C15.6582 42.1165 12.6911 39.0473 10.0784 35.976L9.31673 36.6239ZM5.96221 32.3855C6.5893 33.2743 7.72462 34.7523 9.31673 36.6239L10.0784 35.976C8.50019 34.1207 7.38461 32.6669 6.7793 31.809L5.96221 32.3855ZM4.59146 30.4428L5.96221 32.3855L6.7793 31.809L5.40854 29.8663L4.59146 30.4428ZM5.96221 27.9235L4.59146 29.8663L5.40854 30.4428L6.7793 28.5001L5.96221 27.9235ZM9.31673 23.6851C7.72462 25.5568 6.5893 27.0348 5.96221 27.9235L6.7793 28.5001C7.38461 27.6422 8.50019 26.1884 10.0784 24.3331L9.31673 23.6851ZM18.2775 14.5667C14.959 17.4756 11.958 20.5802 9.31673 23.6851L10.0784 24.3331C12.6911 21.2617 15.6582 18.1926 18.9367 15.3187L18.2775 14.5667ZM49.5 0.809082C38.4853 0.809082 27.9979 6.04601 18.2775 14.5667L18.9367 15.3187C28.5534 6.88891 38.8153 1.80908 49.5 1.80908V0.809082ZM74.5339 20.5034C77.5139 23.1156 80.2315 25.9266 82.6224 28.7373L83.3841 28.0893C80.9647 25.2452 78.2132 22.3988 75.1931 19.7514L74.5339 20.5034ZM49.5011 9.02123C57.7039 9.02123 66.2519 13.2435 74.5339 20.5034L75.1931 19.7514C66.8203 12.412 58.0455 8.02123 49.5011 8.02123V9.02123ZM24.4682 20.5034C32.7502 13.2435 41.2982 9.02123 49.5011 9.02123V8.02123C40.9566 8.02123 32.1818 12.412 23.8091 19.7514L24.4682 20.5034ZM16.3797 28.7373C18.7706 25.9266 21.4882 23.1156 24.4682 20.5034L23.8091 19.7514C20.7889 22.3988 18.0374 25.2452 15.618 28.0893L16.3797 28.7373ZM14.951 30.4676C15.3866 29.9229 15.8634 29.3442 16.3797 28.7373L15.618 28.0893C15.0954 28.7038 14.6121 29.2903 14.1701 29.843L14.951 30.4676ZM16.3797 31.5733C15.8634 30.9664 15.3866 30.3877 14.951 29.843L14.1701 30.4676C14.6121 31.0203 15.0954 31.6069 15.618 32.2213L16.3797 31.5733ZM24.4682 39.8073C21.4882 37.195 18.7706 34.384 16.3797 31.5733L15.618 32.2213C18.0374 35.0654 20.7889 37.9118 23.8091 40.5592L24.4682 39.8073ZM49.5011 51.2894C41.2982 51.2894 32.7502 47.0671 24.4682 39.8073L23.8091 40.5592C32.1818 47.8986 40.9566 52.2894 49.5011 52.2894V51.2894ZM74.5339 39.8073C66.2519 47.0671 57.7039 51.2894 49.5011 51.2894V52.2894C58.0455 52.2894 66.8203 47.8986 75.1931 40.5592L74.5339 39.8073ZM82.6224 31.5733C80.2315 34.384 77.5139 37.195 74.5339 39.8073L75.1931 40.5592C78.2132 37.9118 80.9647 35.0654 83.3841 32.2213L82.6224 31.5733ZM84.0511 29.843C83.6155 30.3877 83.1387 30.9664 82.6224 31.5733L83.3841 32.2213C83.9067 31.6069 84.39 31.0203 84.832 30.4676L84.0511 29.843ZM82.6224 28.7373C83.1387 29.3442 83.6155 29.9229 84.0511 30.4676L84.832 29.843C84.39 29.2903 83.9067 28.7038 83.3841 28.0893L82.6224 28.7373ZM49.5001 44.0766C40.9414 44.0766 34.0889 37.7981 34.0889 30.1539H33.0889C33.0889 38.4406 40.4838 45.0766 49.5001 45.0766V44.0766ZM64.9114 30.1539C64.9114 37.7981 58.0589 44.0766 49.5001 44.0766V45.0766C58.5165 45.0766 65.9114 38.4406 65.9114 30.1539H64.9114ZM49.5001 16.2312C58.0589 16.2312 64.9114 22.5097 64.9114 30.1539H65.9114C65.9114 21.8672 58.5165 15.2312 49.5001 15.2312V16.2312ZM34.0889 30.1539C34.0889 22.5097 40.9414 16.2312 49.5001 16.2312V15.2312C40.4838 15.2312 33.0889 21.8672 33.0889 30.1539H34.0889ZM49.5006 37.8661C54.1231 37.8661 57.9562 34.4586 57.9562 30.1547H56.9562C56.9562 33.8162 53.6655 36.8661 49.5006 36.8661V37.8661ZM41.0449 30.1547C41.0449 34.4586 44.878 37.8661 49.5006 37.8661V36.8661C45.3356 36.8661 42.0449 33.8162 42.0449 30.1547H41.0449ZM49.5006 22.4433C44.878 22.4433 41.0449 25.8507 41.0449 30.1547H42.0449C42.0449 26.4932 45.3356 23.4433 49.5006 23.4433V22.4433ZM57.9562 30.1547C57.9562 25.8507 54.1231 22.4433 49.5006 22.4433V23.4433C53.6655 23.4433 56.9562 26.4932 56.9562 30.1547H57.9562Z" fill="#FCFDF9"/>
</g>
<defs>
<filter id="filter0_d_141_956" x="0.388672" y="0.809082" width="98.2227" height="66.6909" filterUnits="userSpaceOnUse" color-interpolation-filters="sRGB">
<feFlood flood-opacity="0" result="BackgroundImageFix"/>
<feColorMatrix in="SourceAlpha" type="matrix" values="0 0 0 0 0 0 0 0 0 0 0 0 0 0 0 0 0 0 127 0" result="hardAlpha"/>
<feOffset dy="4"/>
<feGaussianBlur stdDeviation="2"/>
<feComposite in2="hardAlpha" operator="out"/>
<feColorMatrix type="matrix" values="0 0 0 0 0 0 0 0 0 0 0 0 0 0 0 0 0 0 0.25 0"/>
<feBlend mode="normal" in2="BackgroundImageFix" result="effect1_dropShadow_141_956"/>
<feBlend mode="normal" in="SourceGraphic" in2="effect1_dropShadow_141_956" result="shape"/>
</filter>
</defs>
</svg>
