<svg width="100" height="68" viewBox="0 0 100 68" fill="none" xmlns="http://www.w3.org/2000/svg">
<g filter="url(#filter0_d_141_468)">
<path fill-rule="evenodd" clip-rule="evenodd" d="M49.8917 1.30908C60.7483 1.30908 71.1296 6.46746 80.8043 14.9427C84.1049 17.8341 87.0909 20.921 89.7195 24.0091C91.3057 25.8726 92.4319 27.3385 93.0485 28.2118L94.4201 30.1545L93.0485 32.0973C92.4319 32.9706 91.3057 34.4365 89.7195 36.3C87.0909 39.3881 84.1049 42.475 80.8043 45.3664C71.1296 53.8416 60.7483 59 49.8917 59C39.0351 59 28.6538 53.8416 18.9791 45.3664C15.6785 42.475 12.6925 39.3881 10.0639 36.3C8.47768 34.4365 7.35151 32.9706 6.73491 32.0973L5.36328 30.1545L6.73491 28.2118C7.35151 27.3385 8.47768 25.8726 10.0639 24.0091C12.6925 20.921 15.6785 17.8341 18.9791 14.9427C28.6538 6.46746 39.0351 1.30908 49.8917 1.30908ZM83.4164 28.4131C81.0097 25.5857 78.2734 22.757 75.2714 20.1271C66.9387 12.8275 58.2718 8.521 49.8928 8.521C41.5139 8.521 32.8469 12.8275 24.5142 20.1271C21.5122 22.757 18.7759 25.5857 16.3692 28.4131C15.8494 29.0237 15.3691 29.6064 14.93 30.1551C15.3691 30.7038 15.8494 31.2864 16.3692 31.8971C18.7759 34.7245 21.5122 37.5532 24.5142 40.183C32.8469 47.4826 41.5139 51.7892 49.8928 51.7892C58.2718 51.7892 66.9387 47.4826 75.2714 40.183C78.2734 37.5532 81.0097 34.7245 83.4164 31.8971C83.9362 31.2864 84.4165 30.7038 84.8556 30.1551C84.4165 29.6064 83.9362 29.0237 83.4164 28.4131ZM33.9705 30.1537C33.9705 38.1191 41.0987 44.5764 49.8919 44.5764C58.6851 44.5764 65.8133 38.1191 65.8133 30.1537C65.8133 22.1882 58.6851 15.731 49.8919 15.731C41.0987 15.731 33.9705 22.1882 33.9705 30.1537ZM57.853 30.1547C57.853 34.1375 54.2889 37.3661 49.8923 37.3661C45.4957 37.3661 41.9316 34.1375 41.9316 30.1547C41.9316 26.172 45.4957 22.9434 49.8923 22.9434C54.2889 22.9434 57.853 26.172 57.853 30.1547Z" fill="#E8E8E8"/>
<path d="M80.8043 14.9427L81.1338 14.5666L81.1338 14.5666L80.8043 14.9427ZM89.7195 24.0091L90.1003 23.685L90.1003 23.685L89.7195 24.0091ZM93.0485 28.2118L92.64 28.5002L92.64 28.5002L93.0485 28.2118ZM94.4201 30.1545L94.8286 30.4429L95.0322 30.1545L94.8286 29.8662L94.4201 30.1545ZM93.0485 32.0973L92.64 31.8089L92.64 31.8089L93.0485 32.0973ZM89.7195 36.3L89.3388 35.9759L89.3388 35.9759L89.7195 36.3ZM80.8043 45.3664L81.1338 45.7425L81.1338 45.7425L80.8043 45.3664ZM18.9791 45.3664L19.3085 44.9903L19.3085 44.9903L18.9791 45.3664ZM10.0639 36.3L10.4446 35.9759L10.4446 35.9759L10.0639 36.3ZM6.73491 32.0973L7.14337 31.8089L7.14337 31.8089L6.73491 32.0973ZM5.36328 30.1545L4.95483 29.8662L4.75122 30.1545L4.95483 30.4429L5.36328 30.1545ZM6.73491 28.2118L7.14337 28.5002L7.14337 28.5002L6.73491 28.2118ZM10.0639 24.0091L9.68312 23.685L9.68312 23.685L10.0639 24.0091ZM18.9791 14.9427L19.3085 15.3188L19.3085 15.3188L18.9791 14.9427ZM75.2714 20.1271L75.6009 19.751L75.6009 19.751L75.2714 20.1271ZM83.4164 28.4131L83.0357 28.7372L83.0357 28.7372L83.4164 28.4131ZM24.5142 20.1271L24.1847 19.751L24.1847 19.751L24.5142 20.1271ZM16.3692 28.4131L15.9885 28.089L15.9885 28.089L16.3692 28.4131ZM14.93 30.1551L14.5396 29.8427L14.2896 30.1551L14.5396 30.4675L14.93 30.1551ZM16.3692 31.8971L15.9885 32.2212L15.9885 32.2212L16.3692 31.8971ZM24.5142 40.183L24.8437 39.8069L24.8437 39.8069L24.5142 40.183ZM75.2714 40.183L75.6009 40.5591L75.6009 40.5591L75.2714 40.183ZM83.4164 31.8971L83.0357 31.573L83.0357 31.573L83.4164 31.8971ZM84.8556 30.1551L85.246 30.4675L85.496 30.1551L85.246 29.8427L84.8556 30.1551ZM81.1338 14.5666C71.4072 6.04591 60.9132 0.809082 49.8917 0.809082V1.80908C60.5835 1.80908 70.852 6.88901 80.4749 15.3188L81.1338 14.5666ZM90.1003 23.685C87.4573 20.5801 84.4544 17.4755 81.1338 14.5666L80.4749 15.3188C83.7555 18.1927 86.7245 21.2619 89.3388 24.3332L90.1003 23.685ZM93.4569 27.9234C92.8295 27.0347 91.6934 25.5566 90.1003 23.685L89.3388 24.3332C90.918 26.1885 92.0343 27.6423 92.64 28.5002L93.4569 27.9234ZM94.8286 29.8662L93.4569 27.9234L92.64 28.5002L94.0117 30.4429L94.8286 29.8662ZM93.4569 32.3857L94.8286 30.4429L94.0117 29.8662L92.64 31.8089L93.4569 32.3857ZM90.1003 36.6241C91.6934 34.7524 92.8295 33.2744 93.4569 32.3857L92.64 31.8089C92.0343 32.6668 90.918 34.1206 89.3388 35.9759L90.1003 36.6241ZM81.1338 45.7425C84.4544 42.8336 87.4573 39.729 90.1003 36.6241L89.3388 35.9759C86.7245 39.0472 83.7555 42.1164 80.4749 44.9903L81.1338 45.7425ZM49.8917 59.5C60.9132 59.5 71.4072 54.2632 81.1338 45.7425L80.4749 44.9903C70.852 53.4201 60.5835 58.5 49.8917 58.5V59.5ZM18.6496 45.7425C28.3762 54.2632 38.8702 59.5 49.8917 59.5V58.5C39.1999 58.5 28.9314 53.4201 19.3085 44.9903L18.6496 45.7425ZM9.68312 36.6241C12.326 39.729 15.329 42.8336 18.6496 45.7425L19.3085 44.9903C16.0279 42.1164 13.0589 39.0472 10.4446 35.9759L9.68312 36.6241ZM6.32646 32.3857C6.95394 33.2744 8.08999 34.7524 9.68312 36.6241L10.4446 35.9759C8.86536 34.1206 7.74907 32.6668 7.14337 31.8089L6.32646 32.3857ZM4.95483 30.4429L6.32646 32.3857L7.14337 31.8089L5.77174 29.8662L4.95483 30.4429ZM6.32646 27.9234L4.95483 29.8662L5.77174 30.4429L7.14337 28.5002L6.32646 27.9234ZM9.68312 23.685C8.08999 25.5566 6.95394 27.0347 6.32646 27.9234L7.14337 28.5002C7.74907 27.6423 8.86536 26.1885 10.4446 24.3332L9.68312 23.685ZM18.6496 14.5666C15.329 17.4755 12.326 20.5801 9.68312 23.685L10.4446 24.3332C13.0589 21.2619 16.0279 18.1927 19.3085 15.3188L18.6496 14.5666ZM49.8917 0.809082C38.8702 0.809082 28.3762 6.04591 18.6496 14.5666L19.3085 15.3188C28.9314 6.88901 39.1999 1.80908 49.8917 1.80908V0.809082ZM74.942 20.5032C77.9239 23.1155 80.6432 25.9265 83.0357 28.7372L83.7972 28.089C81.3762 25.2448 78.623 22.3984 75.6009 19.751L74.942 20.5032ZM49.8928 9.021C58.1011 9.021 66.6547 13.2434 74.942 20.5032L75.6009 19.751C67.2228 12.4117 58.4425 8.021 49.8928 8.021V9.021ZM24.8437 20.5032C33.131 13.2434 41.6845 9.021 49.8928 9.021V8.021C41.3432 8.021 32.5628 12.4117 24.1847 19.751L24.8437 20.5032ZM16.75 28.7372C19.1424 25.9265 21.8617 23.1155 24.8437 20.5032L24.1847 19.751C21.1627 22.3984 18.4094 25.2448 15.9885 28.089L16.75 28.7372ZM15.3204 30.4675C15.7563 29.9228 16.2334 29.3441 16.75 28.7372L15.9885 28.089C15.4655 28.7034 14.982 29.2899 14.5396 29.8427L15.3204 30.4675ZM16.75 31.573C16.2334 30.9661 15.7563 30.3873 15.3204 29.8427L14.5396 30.4675C14.982 31.0202 15.4655 31.6068 15.9885 32.2212L16.75 31.573ZM24.8437 39.8069C21.8617 37.1947 19.1424 34.3837 16.75 31.573L15.9885 32.2212C18.4094 35.0653 21.1627 37.9117 24.1847 40.5591L24.8437 39.8069ZM49.8928 51.2892C41.6845 51.2892 33.131 47.0667 24.8437 39.8069L24.1847 40.5591C32.5628 47.8985 41.3432 52.2892 49.8928 52.2892V51.2892ZM74.942 39.8069C66.6547 47.0667 58.1011 51.2892 49.8928 51.2892V52.2892C58.4425 52.2892 67.2228 47.8985 75.6009 40.5591L74.942 39.8069ZM83.0357 31.573C80.6432 34.3837 77.9239 37.1947 74.942 39.8069L75.6009 40.5591C78.623 37.9117 81.3762 35.0653 83.7972 32.2212L83.0357 31.573ZM84.4653 29.8427C84.0294 30.3873 83.5523 30.9661 83.0357 31.573L83.7972 32.2212C84.3201 31.6068 84.8037 31.0202 85.246 30.4675L84.4653 29.8427ZM83.0357 28.7372C83.5523 29.3441 84.0294 29.9228 84.4653 30.4675L85.246 29.8427C84.8037 29.2899 84.3201 28.7034 83.7972 28.089L83.0357 28.7372ZM49.8919 44.0764C41.3272 44.0764 34.4705 37.7976 34.4705 30.1537H33.4705C33.4705 38.4406 40.8703 45.0764 49.8919 45.0764V44.0764ZM65.3133 30.1537C65.3133 37.7976 58.4566 44.0764 49.8919 44.0764V45.0764C58.9136 45.0764 66.3133 38.4406 66.3133 30.1537H65.3133ZM49.8919 16.231C58.4566 16.231 65.3133 22.5097 65.3133 30.1537H66.3133C66.3133 21.8667 58.9136 15.231 49.8919 15.231V16.231ZM34.4705 30.1537C34.4705 22.5097 41.3272 16.231 49.8919 16.231V15.231C40.8703 15.231 33.4705 21.8667 33.4705 30.1537H34.4705ZM49.8923 37.8661C54.5174 37.8661 58.353 34.459 58.353 30.1547H57.353C57.353 33.8159 54.0604 36.8661 49.8923 36.8661V37.8661ZM41.4316 30.1547C41.4316 34.459 45.2673 37.8661 49.8923 37.8661V36.8661C45.7242 36.8661 42.4316 33.8159 42.4316 30.1547H41.4316ZM49.8923 22.4434C45.2673 22.4434 41.4316 25.8505 41.4316 30.1547H42.4316C42.4316 26.4935 45.7242 23.4434 49.8923 23.4434V22.4434ZM58.353 30.1547C58.353 25.8505 54.5174 22.4434 49.8923 22.4434V23.4434C54.0604 23.4434 57.353 26.4935 57.353 30.1547H58.353Z" fill="#FCFDF9"/>
</g>
<defs>
<filter id="filter0_d_141_468" x="0.750977" y="0.809082" width="98.2812" height="66.6909" filterUnits="userSpaceOnUse" color-interpolation-filters="sRGB">
<feFlood flood-opacity="0" result="BackgroundImageFix"/>
<feColorMatrix in="SourceAlpha" type="matrix" values="0 0 0 0 0 0 0 0 0 0 0 0 0 0 0 0 0 0 127 0" result="hardAlpha"/>
<feOffset dy="4"/>
<feGaussianBlur stdDeviation="2"/>
<feComposite in2="hardAlpha" operator="out"/>
<feColorMatrix type="matrix" values="0 0 0 0 1 0 0 0 0 1 0 0 0 0 1 0 0 0 0.25 0"/>
<feBlend mode="normal" in2="BackgroundImageFix" result="effect1_dropShadow_141_468"/>
<feBlend mode="normal" in="SourceGraphic" in2="effect1_dropShadow_141_468" result="shape"/>
</filter>
</defs>
</svg>
