<svg width="91" height="65" viewBox="0 0 91 65" fill="none" xmlns="http://www.w3.org/2000/svg">
<path fill-rule="evenodd" clip-rule="evenodd" d="M45.5 1C56.3497 1 66.7244 6.62042 76.3929 15.8548C79.6914 19.0052 82.6755 22.3685 85.3024 25.7333C86.8876 27.7637 88.013 29.3609 88.6292 30.3125L90 32.4292L88.6292 34.5459C88.013 35.4975 86.8876 37.0947 85.3024 39.1251C82.6755 42.4899 79.6914 45.8532 76.3929 49.0036C66.7244 58.238 56.3497 63.8584 45.5 63.8584C34.6503 63.8584 24.2756 58.238 14.6071 49.0036C11.3086 45.8532 8.32452 42.4899 5.69758 39.1251C4.11241 37.0947 2.98696 35.4975 2.37075 34.5459L1 32.4292L2.37075 30.3125C2.98696 29.3609 4.11241 27.7637 5.69758 25.7333C8.32452 22.3685 11.3086 19.0052 14.6071 15.8548C24.2756 6.62042 34.6503 1 45.5 1ZM79.0027 30.5313C76.5975 27.4506 73.863 24.3685 70.8629 21.5031C62.5355 13.5497 53.8741 8.85739 45.5005 8.85739C37.1269 8.85739 28.4654 13.5497 20.1381 21.5031C17.138 24.3685 14.4034 27.4506 11.9983 30.5313C11.4788 31.1966 10.9988 31.8314 10.56 32.4293C10.9988 33.0271 11.4788 33.662 11.9983 34.3273C14.4034 37.408 17.138 40.4901 20.1381 43.3554C28.4654 51.3089 37.1269 56.0012 45.5005 56.0012C53.8741 56.0012 62.5355 51.3089 70.8629 43.3554C73.863 40.4901 76.5975 37.408 79.0027 34.3273C79.5221 33.662 80.0022 33.0271 80.441 32.4293C80.0022 31.8314 79.5221 31.1966 79.0027 30.5313ZM29.5886 32.4294C29.5886 41.1083 36.7124 48.144 45.4999 48.144C54.2875 48.144 61.4112 41.1083 61.4112 32.4294C61.4112 23.7504 54.2875 16.7148 45.4999 16.7148C36.7124 16.7148 29.5886 23.7504 29.5886 32.4294ZM53.4555 32.4291C53.4555 36.7685 49.8937 40.2864 45.4999 40.2864C41.1061 40.2864 37.5443 36.7685 37.5443 32.4291C37.5443 28.0896 41.1061 24.5718 45.4999 24.5718C49.8937 24.5718 53.4555 28.0896 53.4555 32.4291Z" fill="#74745B"/>
<path d="M76.3929 15.8548L76.7382 15.4932L76.3929 15.8548ZM85.3024 25.7333L85.6965 25.4256V25.4256L85.3024 25.7333ZM88.6292 30.3125L89.0489 30.0407V30.0407L88.6292 30.3125ZM90 32.4292L90.4197 32.701L90.5957 32.4292L90.4197 32.1574L90 32.4292ZM88.6292 34.5459L89.0489 34.8177L88.6292 34.5459ZM85.3024 39.1251L85.6965 39.4328L85.3024 39.1251ZM76.3929 49.0036L76.0476 48.642V48.642L76.3929 49.0036ZM14.6071 49.0036L14.2618 49.3652L14.6071 49.0036ZM5.69758 39.1251L6.09169 38.8174L5.69758 39.1251ZM2.37075 34.5459L2.79044 34.2742L2.37075 34.5459ZM1 32.4292L0.580314 32.1574L0.404317 32.4292L0.580314 32.701L1 32.4292ZM2.37075 30.3125L1.95107 30.0407H1.95107L2.37075 30.3125ZM5.69758 25.7333L5.30347 25.4256L5.69758 25.7333ZM14.6071 15.8548L14.2618 15.4932L14.6071 15.8548ZM70.8629 21.5031L71.2083 21.1415L70.8629 21.5031ZM79.0027 30.5313L79.3968 30.2236L79.0027 30.5313ZM20.1381 21.5031L19.7927 21.1415L20.1381 21.5031ZM11.9983 30.5313L12.3924 30.839L11.9983 30.5313ZM10.56 32.4293L10.1569 32.1334L9.93973 32.4293L10.1569 32.7252L10.56 32.4293ZM11.9983 34.3273L12.3924 34.0196L11.9983 34.3273ZM20.1381 43.3554L19.7927 43.717V43.717L20.1381 43.3554ZM70.8629 43.3554L71.2083 43.717V43.717L70.8629 43.3554ZM79.0027 34.3273L79.3968 34.635L79.0027 34.3273ZM80.441 32.4293L80.8441 32.7252L81.0612 32.4293L80.8441 32.1334L80.441 32.4293ZM76.7382 15.4932C67.0219 6.21322 56.5296 0.5 45.5 0.5V1.5C56.1698 1.5 66.4268 7.02763 76.0476 16.2164L76.7382 15.4932ZM85.6965 25.4256C83.0563 22.0438 80.0561 18.6621 76.7382 15.4932L76.0476 16.2164C79.3267 19.3483 82.2947 22.6933 84.9083 26.041L85.6965 25.4256ZM89.0489 30.0407C88.4228 29.0737 87.2882 27.4643 85.6965 25.4256L84.9083 26.041C86.487 28.0631 87.6033 29.6481 88.2096 30.5842L89.0489 30.0407ZM90.4197 32.1574L89.0489 30.0407L88.2096 30.5842L89.5803 32.701L90.4197 32.1574ZM89.0489 34.8177L90.4197 32.701L89.5803 32.1574L88.2096 34.2742L89.0489 34.8177ZM85.6965 39.4328C87.2882 37.3941 88.4228 35.7847 89.0489 34.8177L88.2096 34.2742C87.6033 35.2103 86.487 36.7953 84.9083 38.8174L85.6965 39.4328ZM76.7382 49.3652C80.0561 46.1963 83.0563 42.8146 85.6965 39.4328L84.9083 38.8174C82.2947 42.1651 79.3267 45.5101 76.0476 48.642L76.7382 49.3652ZM45.5 64.3584C56.5296 64.3584 67.0219 58.6452 76.7382 49.3652L76.0476 48.642C66.4268 57.8308 56.1698 63.3584 45.5 63.3584V64.3584ZM14.2618 49.3652C23.9781 58.6452 34.4704 64.3584 45.5 64.3584V63.3584C34.8302 63.3584 24.5732 57.8308 14.9524 48.642L14.2618 49.3652ZM5.30347 39.4328C7.94373 42.8146 10.9439 46.1963 14.2618 49.3652L14.9524 48.642C11.6733 45.5101 8.70531 42.1651 6.09169 38.8174L5.30347 39.4328ZM1.95107 34.8177C2.57723 35.7847 3.71179 37.3941 5.30347 39.4328L6.09169 38.8174C4.51303 36.7953 3.39668 35.2103 2.79044 34.2742L1.95107 34.8177ZM0.580314 32.701L1.95107 34.8177L2.79044 34.2742L1.41969 32.1574L0.580314 32.701ZM1.95107 30.0407L0.580314 32.1574L1.41969 32.701L2.79044 30.5842L1.95107 30.0407ZM5.30347 25.4256C3.71179 27.4643 2.57723 29.0737 1.95107 30.0407L2.79044 30.5842C3.39668 29.6481 4.51303 28.0631 6.09169 26.041L5.30347 25.4256ZM14.2618 15.4932C10.9439 18.6621 7.94373 22.0438 5.30347 25.4256L6.09169 26.041C8.70531 22.6933 11.6733 19.3483 14.9524 16.2164L14.2618 15.4932ZM45.5 0.5C34.4704 0.5 23.9781 6.21322 14.2618 15.4932L14.9524 16.2164C24.5732 7.02763 34.8302 1.5 45.5 1.5V0.5ZM70.5176 21.8647C73.4982 24.7115 76.2167 27.7753 78.6086 30.839L79.3968 30.2236C76.9784 27.1259 74.2277 24.0254 71.2083 21.1415L70.5176 21.8647ZM45.5005 9.35739C53.6881 9.35739 62.2312 13.9505 70.5176 21.8647L71.2083 21.1415C62.8398 13.1489 54.0601 8.35739 45.5005 8.35739V9.35739ZM20.4834 21.8647C28.7697 13.9505 37.3128 9.35739 45.5005 9.35739V8.35739C36.9409 8.35739 28.1611 13.1489 19.7927 21.1415L20.4834 21.8647ZM12.3924 30.839C14.7843 27.7753 17.5027 24.7115 20.4834 21.8647L19.7927 21.1415C16.7732 24.0254 14.0226 27.1259 11.6042 30.2236L12.3924 30.839ZM10.963 32.7252C11.3989 32.1314 11.8759 31.5005 12.3924 30.839L11.6042 30.2236C11.0817 30.8927 10.5987 31.5315 10.1569 32.1334L10.963 32.7252ZM12.3924 34.0196C11.8759 33.3581 11.3989 32.7272 10.963 32.1334L10.1569 32.7252C10.5987 33.3271 11.0817 33.9658 11.6042 34.635L12.3924 34.0196ZM20.4834 42.9939C17.5027 40.147 14.7843 37.0833 12.3924 34.0196L11.6042 34.635C14.0226 37.7327 16.7732 40.8331 19.7927 43.717L20.4834 42.9939ZM45.5005 55.5012C37.3128 55.5012 28.7697 50.9081 20.4834 42.9939L19.7927 43.717C28.1611 51.7097 36.9409 56.5012 45.5005 56.5012V55.5012ZM70.5176 42.9939C62.2312 50.9081 53.6881 55.5012 45.5005 55.5012V56.5012C54.0601 56.5012 62.8398 51.7097 71.2083 43.717L70.5176 42.9939ZM78.6086 34.0196C76.2167 37.0833 73.4982 40.147 70.5176 42.9939L71.2083 43.717C74.2277 40.8331 76.9784 37.7327 79.3968 34.635L78.6086 34.0196ZM80.0379 32.1334C79.6021 32.7272 79.1251 33.3581 78.6086 34.0196L79.3968 34.635C79.9192 33.9658 80.4022 33.3271 80.8441 32.7252L80.0379 32.1334ZM78.6086 30.839C79.1251 31.5005 79.6021 32.1314 80.0379 32.7252L80.8441 32.1334C80.4022 31.5315 79.9192 30.8927 79.3968 30.2236L78.6086 30.839ZM45.4999 47.644C36.9826 47.644 30.0886 40.8263 30.0886 32.4294H29.0886C29.0886 41.3903 36.4421 48.644 45.4999 48.644V47.644ZM60.9112 32.4294C60.9112 40.8263 54.0172 47.644 45.4999 47.644V48.644C54.5577 48.644 61.9112 41.3903 61.9112 32.4294H60.9112ZM45.4999 17.2148C54.0172 17.2148 60.9112 24.0324 60.9112 32.4294H61.9112C61.9112 23.4685 54.5577 16.2148 45.4999 16.2148V17.2148ZM30.0886 32.4294C30.0886 24.0324 36.9826 17.2148 45.4999 17.2148V16.2148C36.4421 16.2148 29.0886 23.4685 29.0886 32.4294H30.0886ZM45.4999 40.7864C50.1639 40.7864 53.9555 37.0505 53.9555 32.4291H52.9555C52.9555 36.4865 49.6234 39.7864 45.4999 39.7864V40.7864ZM37.0443 32.4291C37.0443 37.0505 40.8359 40.7864 45.4999 40.7864V39.7864C41.3764 39.7864 38.0443 36.4865 38.0443 32.4291H37.0443ZM45.4999 24.0718C40.8359 24.0718 37.0443 27.8076 37.0443 32.4291H38.0443C38.0443 28.3716 41.3764 25.0718 45.4999 25.0718V24.0718ZM53.9555 32.4291C53.9555 27.8076 50.1639 24.0718 45.4999 24.0718V25.0718C49.6234 25.0718 52.9555 28.3716 52.9555 32.4291H53.9555Z" fill="#566E00"/>
</svg>
