<svg width="91" height="57" viewBox="0 0 91 57" fill="none" xmlns="http://www.w3.org/2000/svg">
<path fill-rule="evenodd" clip-rule="evenodd" d="M45.5 1C56.3497 1 66.7244 5.91777 76.3929 13.9977C79.6914 16.7542 82.6755 19.6971 85.3024 22.6412C86.8876 24.4178 88.013 25.8153 88.6292 26.6479L90 28.5L88.6292 30.3521C88.013 31.1847 86.8876 32.5822 85.3024 34.3588C82.6755 37.3029 79.6914 40.2458 76.3929 43.0023C66.7244 51.0822 56.3497 56 45.5 56C34.6503 56 24.2756 51.0822 14.6071 43.0023C11.3086 40.2458 8.32452 37.3029 5.69758 34.3588C4.11241 32.5822 2.98696 31.1847 2.37075 30.3521L1 28.5L2.37075 26.6479C2.98696 25.8153 4.11241 24.4178 5.69758 22.6412C8.32452 19.6971 11.3086 16.7542 14.6071 13.9977C24.2756 5.91777 34.6503 1 45.5 1ZM79.0028 26.8399C76.5976 24.1444 73.8631 21.4476 70.863 18.9405C62.5356 11.9813 53.8742 7.87566 45.5006 7.87566C37.127 7.87566 28.4655 11.9813 20.1382 18.9405C17.1381 21.4476 14.4035 24.1444 11.9984 26.8399C11.4789 27.4221 10.9989 27.9775 10.5601 28.5006C10.9989 29.0238 11.4789 29.5792 11.9984 30.1614C14.4035 32.8569 17.1381 35.5537 20.1382 38.0608C28.4655 45.02 37.127 49.1256 45.5006 49.1256C53.8742 49.1256 62.5356 45.02 70.863 38.0608C73.8631 35.5537 76.5976 32.8569 79.0028 30.1614C79.5222 29.5792 80.0022 29.0238 80.4411 28.5006C80.0022 27.9775 79.5222 27.4221 79.0028 26.8399ZM29.5889 28.4997C29.5889 36.0936 36.7126 42.2497 45.5001 42.2497C54.2877 42.2497 61.4114 36.0936 61.4114 28.4997C61.4114 20.9058 54.2877 14.7497 45.5001 14.7497C36.7126 14.7497 29.5889 20.9058 29.5889 28.4997ZM53.4557 28.4998C53.4557 32.2968 49.8938 35.3748 45.5001 35.3748C41.1063 35.3748 37.5444 32.2968 37.5444 28.4998C37.5444 24.7028 41.1063 21.6248 45.5001 21.6248C49.8938 21.6248 53.4557 24.7028 53.4557 28.4998Z" fill="#3F4E0B"/>
<path d="M76.3929 13.9977L76.0723 14.3814L76.0723 14.3814L76.3929 13.9977ZM85.3024 22.6412L85.6755 22.3083L85.6755 22.3083L85.3024 22.6412ZM88.6292 26.6479L89.0312 26.3504L89.0312 26.3504L88.6292 26.6479ZM90 28.5L90.4019 28.7974L90.622 28.5L90.4019 28.2026L90 28.5ZM88.6292 30.3521L89.0312 30.6496L89.0312 30.6496L88.6292 30.3521ZM85.3024 34.3588L85.6755 34.6917L85.6755 34.6917L85.3024 34.3588ZM76.3929 43.0023L76.0723 42.6186L76.0723 42.6186L76.3929 43.0023ZM14.6071 43.0023L14.2865 43.386L14.2865 43.386L14.6071 43.0023ZM5.69758 34.3588L5.3245 34.6917L5.3245 34.6917L5.69758 34.3588ZM2.37075 30.3521L2.77266 30.0547L2.77266 30.0547L2.37075 30.3521ZM1 28.5L0.598099 28.2026L0.377957 28.5L0.598099 28.7974L1 28.5ZM2.37075 26.6479L2.77266 26.9453L2.77266 26.9453L2.37075 26.6479ZM5.69758 22.6412L6.07066 22.9741L6.07066 22.9741L5.69758 22.6412ZM14.6071 13.9977L14.2865 13.614L14.6071 13.9977ZM70.863 18.9405L71.1836 18.5568L71.1836 18.5568L70.863 18.9405ZM79.0028 26.8399L78.6297 27.1728L78.6297 27.1728L79.0028 26.8399ZM20.1382 18.9405L20.4588 19.3241L20.4588 19.3241L20.1382 18.9405ZM11.9984 26.8399L12.3714 27.1728L12.3714 27.1728L11.9984 26.8399ZM10.5601 28.5006L10.177 28.1793L9.90741 28.5006L10.177 28.822L10.5601 28.5006ZM11.9984 30.1614L12.3714 29.8285L12.3714 29.8285L11.9984 30.1614ZM20.1382 38.0608L20.4588 37.6772L20.4588 37.6772L20.1382 38.0608ZM70.863 38.0608L71.1836 38.4445L71.1836 38.4445L70.863 38.0608ZM79.0028 30.1614L78.6297 29.8285L78.6297 29.8285L79.0028 30.1614ZM80.4411 28.5006L80.8241 28.822L81.0937 28.5006L80.8241 28.1793L80.4411 28.5006ZM76.7135 13.614C66.9914 5.48928 56.5068 0.5 45.5 0.5V1.5C56.1926 1.5 66.4574 6.34627 76.0723 14.3814L76.7135 13.614ZM85.6755 22.3083C83.0337 19.3476 80.0323 16.3875 76.7135 13.614L76.0723 14.3814C79.3505 17.121 82.3172 20.0466 84.9293 22.9741L85.6755 22.3083ZM89.0312 26.3504C88.4036 25.5025 87.2678 24.0929 85.6755 22.3083L84.9293 22.9741C86.5074 24.7426 87.6225 26.1281 88.2273 26.9453L89.0312 26.3504ZM90.4019 28.2026L89.0312 26.3504L88.2273 26.9453L89.5981 28.7974L90.4019 28.2026ZM89.0312 30.6496L90.4019 28.7974L89.5981 28.2026L88.2273 30.0547L89.0312 30.6496ZM85.6755 34.6917C87.2678 32.9071 88.4036 31.4975 89.0312 30.6496L88.2273 30.0547C87.6225 30.8719 86.5074 32.2574 84.9293 34.0259L85.6755 34.6917ZM76.7135 43.386C80.0323 40.6125 83.0337 37.6524 85.6755 34.6917L84.9293 34.0259C82.3172 36.9534 79.3505 39.879 76.0723 42.6186L76.7135 43.386ZM45.5 56.5C56.5068 56.5 66.9914 51.5107 76.7135 43.386L76.0723 42.6186C66.4574 50.6537 56.1926 55.5 45.5 55.5V56.5ZM14.2865 43.386C24.0087 51.5107 34.4932 56.5 45.5 56.5V55.5C34.8074 55.5 24.5426 50.6537 14.9277 42.6186L14.2865 43.386ZM5.3245 34.6917C7.96625 37.6524 10.9677 40.6125 14.2865 43.386L14.9277 42.6186C11.6495 39.879 8.68279 36.9534 6.07066 34.0259L5.3245 34.6917ZM1.96885 30.6496C2.59644 31.4975 3.73217 32.9071 5.3245 34.6917L6.07066 34.0259C4.49264 32.2574 3.37747 30.8719 2.77266 30.0547L1.96885 30.6496ZM0.598099 28.7974L1.96885 30.6496L2.77266 30.0547L1.4019 28.2026L0.598099 28.7974ZM1.96885 26.3504L0.598099 28.2026L1.4019 28.7974L2.77266 26.9453L1.96885 26.3504ZM5.3245 22.3083C3.73217 24.0929 2.59644 25.5025 1.96885 26.3504L2.77266 26.9453C3.37747 26.1281 4.49264 24.7426 6.07066 22.9741L5.3245 22.3083ZM14.2865 13.614C10.9677 16.3875 7.96625 19.3476 5.3245 22.3083L6.07066 22.9741C8.68279 20.0466 11.6495 17.121 14.9277 14.3814L14.2865 13.614ZM45.5 0.5C34.4932 0.5 24.0087 5.48928 14.2865 13.614L14.9277 14.3814C24.5426 6.34627 34.8074 1.5 45.5 1.5V0.5ZM70.5424 19.3241C73.5221 21.8143 76.2393 24.4938 78.6297 27.1728L79.3758 26.507C76.9559 23.795 74.204 21.0809 71.1836 18.5568L70.5424 19.3241ZM45.5006 8.37566C53.7114 8.37566 62.2623 12.4045 70.5424 19.3241L71.1836 18.5568C62.8089 11.5581 54.037 7.37566 45.5006 7.37566V8.37566ZM20.4588 19.3241C28.7388 12.4045 37.2897 8.37566 45.5006 8.37566V7.37566C36.9642 7.37566 28.1922 11.5581 19.8175 18.5568L20.4588 19.3241ZM12.3714 27.1728C14.7619 24.4938 17.479 21.8143 20.4588 19.3241L19.8175 18.5568C16.7971 21.0809 14.0452 23.795 11.6253 26.507L12.3714 27.1728ZM10.9431 28.822C11.3786 28.3029 11.8553 27.7513 12.3714 27.1728L11.6253 26.507C11.1025 27.0929 10.6192 27.6522 10.177 28.1793L10.9431 28.822ZM12.3714 29.8285C11.8553 29.25 11.3786 28.6984 10.9431 28.1793L10.177 28.822C10.6192 29.3491 11.1025 29.9084 11.6253 30.4943L12.3714 29.8285ZM20.4588 37.6772C17.479 35.187 14.7619 32.5075 12.3714 29.8285L11.6253 30.4943C14.0452 33.2063 16.7971 35.9204 19.8175 38.4445L20.4588 37.6772ZM45.5006 48.6256C37.2897 48.6256 28.7388 44.5968 20.4588 37.6772L19.8175 38.4445C28.1922 45.4432 36.9642 49.6256 45.5006 49.6256V48.6256ZM70.5424 37.6772C62.2623 44.5968 53.7114 48.6256 45.5006 48.6256V49.6256C54.037 49.6256 62.8089 45.4432 71.1836 38.4445L70.5424 37.6772ZM78.6297 29.8285C76.2393 32.5075 73.5221 35.187 70.5424 37.6772L71.1836 38.4445C74.204 35.9204 76.9559 33.2063 79.3758 30.4943L78.6297 29.8285ZM80.058 28.1793C79.6225 28.6984 79.1459 29.25 78.6297 29.8285L79.3758 30.4943C79.8986 29.9084 80.3819 29.3491 80.8241 28.822L80.058 28.1793ZM78.6297 27.1728C79.1459 27.7513 79.6225 28.3029 80.058 28.822L80.8241 28.1793C80.3819 27.6522 79.8986 27.0929 79.3758 26.507L78.6297 27.1728ZM45.5001 41.7497C36.9177 41.7497 30.0889 35.7515 30.0889 28.4997H29.0889C29.0889 36.4358 36.5075 42.7497 45.5001 42.7497V41.7497ZM60.9114 28.4997C60.9114 35.7515 54.0826 41.7497 45.5001 41.7497V42.7497C54.4928 42.7497 61.9114 36.4358 61.9114 28.4997H60.9114ZM45.5001 15.2497C54.0826 15.2497 60.9114 21.248 60.9114 28.4997H61.9114C61.9114 20.5636 54.4928 14.2497 45.5001 14.2497V15.2497ZM30.0889 28.4997C30.0889 21.248 36.9177 15.2497 45.5001 15.2497V14.2497C36.5075 14.2497 29.0889 20.5636 29.0889 28.4997H30.0889ZM45.5001 35.8748C50.099 35.8748 53.9557 32.6389 53.9557 28.4998H52.9557C52.9557 31.9546 49.6887 34.8748 45.5001 34.8748V35.8748ZM37.0444 28.4998C37.0444 32.6389 40.9012 35.8748 45.5001 35.8748V34.8748C41.3114 34.8748 38.0444 31.9546 38.0444 28.4998H37.0444ZM45.5001 21.1248C40.9012 21.1248 37.0444 24.3607 37.0444 28.4998H38.0444C38.0444 25.045 41.3114 22.1248 45.5001 22.1248V21.1248ZM53.9557 28.4998C53.9557 24.3607 50.099 21.1248 45.5001 21.1248V22.1248C49.6887 22.1248 52.9557 25.045 52.9557 28.4998H53.9557Z" fill="#3F4E0B"/>
</svg>
