<svg width="99" height="65" viewBox="0 0 99 65" fill="none" xmlns="http://www.w3.org/2000/svg">
<g filter="url(#filter0_d_128_1731)">
<path fill-rule="evenodd" clip-rule="evenodd" d="M49.5 1C60.3497 1 70.7244 5.91777 80.3929 13.9977C83.6914 16.7542 86.6755 19.6971 89.3024 22.6412C90.8876 24.4178 92.013 25.8153 92.6292 26.6479L94 28.5L92.6292 30.3521C92.013 31.1847 90.8876 32.5822 89.3024 34.3588C86.6755 37.3029 83.6914 40.2458 80.3929 43.0023C70.7244 51.0822 60.3497 56 49.5 56C38.6503 56 28.2756 51.0822 18.6071 43.0023C15.3086 40.2458 12.3245 37.3029 9.69758 34.3588C8.11241 32.5822 6.98696 31.1847 6.37075 30.3521L5 28.5L6.37075 26.6479C6.98696 25.8153 8.11241 24.4178 9.69758 22.6412C12.3245 19.6971 15.3086 16.7542 18.6071 13.9977C28.2756 5.91777 38.6503 1 49.5 1ZM83.0028 26.8399C80.5976 24.1444 77.8631 21.4476 74.863 18.9405C66.5356 11.9813 57.8742 7.87566 49.5006 7.87566C41.127 7.87566 32.4655 11.9813 24.1382 18.9405C21.1381 21.4476 18.4035 24.1444 15.9984 26.8399C15.4789 27.4221 14.9989 27.9775 14.5601 28.5006C14.9989 29.0238 15.4789 29.5792 15.9984 30.1614C18.4035 32.8569 21.1381 35.5537 24.1382 38.0608C32.4655 45.02 41.127 49.1256 49.5006 49.1256C57.8742 49.1256 66.5356 45.02 74.863 38.0608C77.8631 35.5537 80.5976 32.8569 83.0028 30.1614C83.5222 29.5792 84.0022 29.0238 84.4411 28.5006C84.0022 27.9775 83.5222 27.4221 83.0028 26.8399ZM33.5889 28.4997C33.5889 36.0936 40.7126 42.2497 49.5001 42.2497C58.2877 42.2497 65.4114 36.0936 65.4114 28.4997C65.4114 20.9058 58.2877 14.7497 49.5001 14.7497C40.7126 14.7497 33.5889 20.9058 33.5889 28.4997ZM57.4557 28.4998C57.4557 32.2968 53.8938 35.3748 49.5001 35.3748C45.1063 35.3748 41.5444 32.2968 41.5444 28.4998C41.5444 24.7028 45.1063 21.6248 49.5001 21.6248C53.8938 21.6248 57.4557 24.7028 57.4557 28.4998Z" fill="#E8E8E8"/>
<path d="M80.3929 13.9977L80.0723 14.3814L80.3929 13.9977ZM89.3024 22.6412L89.6755 22.3083L89.3024 22.6412ZM92.6292 26.6479L93.0312 26.3504V26.3504L92.6292 26.6479ZM94 28.5L94.4019 28.7974L94.622 28.5L94.4019 28.2026L94 28.5ZM92.6292 30.3521L93.0312 30.6496V30.6496L92.6292 30.3521ZM89.3024 34.3588L89.6755 34.6917L89.3024 34.3588ZM80.3929 43.0023L80.0723 42.6186L80.3929 43.0023ZM18.6071 43.0023L18.2865 43.386L18.6071 43.0023ZM9.69758 34.3588L9.3245 34.6917L9.69758 34.3588ZM6.37075 30.3521L6.77266 30.0547H6.77266L6.37075 30.3521ZM5 28.5L4.5981 28.2026L4.37796 28.5L4.5981 28.7974L5 28.5ZM6.37075 26.6479L6.77266 26.9453H6.77266L6.37075 26.6479ZM9.69758 22.6412L10.0707 22.9741L9.69758 22.6412ZM18.6071 13.9977L18.2865 13.614L18.6071 13.9977ZM74.863 18.9405L75.1836 18.5568L74.863 18.9405ZM83.0028 26.8399L82.6297 27.1728L83.0028 26.8399ZM24.1382 18.9405L24.4588 19.3241L24.1382 18.9405ZM15.9984 26.8399L16.3714 27.1728L15.9984 26.8399ZM14.5601 28.5006L14.177 28.1793L13.9074 28.5006L14.177 28.822L14.5601 28.5006ZM15.9984 30.1614L16.3714 29.8285L15.9984 30.1614ZM24.1382 38.0608L24.4588 37.6772V37.6772L24.1382 38.0608ZM74.863 38.0608L75.1836 38.4445L74.863 38.0608ZM83.0028 30.1614L82.6297 29.8285L83.0028 30.1614ZM84.4411 28.5006L84.8241 28.822L85.0937 28.5006L84.8241 28.1793L84.4411 28.5006ZM80.7135 13.614C70.9914 5.48928 60.5068 0.5 49.5 0.5V1.5C60.1926 1.5 70.4574 6.34627 80.0723 14.3814L80.7135 13.614ZM89.6755 22.3083C87.0337 19.3476 84.0323 16.3875 80.7135 13.614L80.0723 14.3814C83.3505 17.121 86.3172 20.0466 88.9293 22.9741L89.6755 22.3083ZM93.0312 26.3504C92.4036 25.5025 91.2678 24.0929 89.6755 22.3083L88.9293 22.9741C90.5074 24.7426 91.6225 26.1281 92.2273 26.9453L93.0312 26.3504ZM94.4019 28.2026L93.0312 26.3504L92.2273 26.9453L93.5981 28.7974L94.4019 28.2026ZM93.0312 30.6496L94.4019 28.7974L93.5981 28.2026L92.2273 30.0547L93.0312 30.6496ZM89.6755 34.6917C91.2678 32.9071 92.4036 31.4975 93.0312 30.6496L92.2273 30.0547C91.6225 30.8719 90.5074 32.2574 88.9293 34.0259L89.6755 34.6917ZM80.7135 43.386C84.0323 40.6125 87.0337 37.6524 89.6755 34.6917L88.9293 34.0259C86.3172 36.9534 83.3505 39.879 80.0723 42.6186L80.7135 43.386ZM49.5 56.5C60.5068 56.5 70.9914 51.5107 80.7135 43.386L80.0723 42.6186C70.4574 50.6537 60.1926 55.5 49.5 55.5V56.5ZM18.2865 43.386C28.0087 51.5107 38.4932 56.5 49.5 56.5V55.5C38.8074 55.5 28.5426 50.6537 18.9277 42.6186L18.2865 43.386ZM9.3245 34.6917C11.9663 37.6524 14.9677 40.6125 18.2865 43.386L18.9277 42.6186C15.6495 39.879 12.6828 36.9534 10.0707 34.0259L9.3245 34.6917ZM5.96885 30.6496C6.59644 31.4975 7.73217 32.9071 9.3245 34.6917L10.0707 34.0259C8.49265 32.2574 7.37747 30.8719 6.77266 30.0547L5.96885 30.6496ZM4.5981 28.7974L5.96885 30.6496L6.77266 30.0547L5.4019 28.2026L4.5981 28.7974ZM5.96885 26.3504L4.5981 28.2026L5.4019 28.7974L6.77266 26.9453L5.96885 26.3504ZM9.3245 22.3083C7.73217 24.0929 6.59644 25.5025 5.96885 26.3504L6.77266 26.9453C7.37747 26.1281 8.49264 24.7426 10.0707 22.9741L9.3245 22.3083ZM18.2865 13.614C14.9677 16.3875 11.9663 19.3476 9.3245 22.3083L10.0707 22.9741C12.6828 20.0466 15.6495 17.121 18.9277 14.3814L18.2865 13.614ZM49.5 0.5C38.4932 0.5 28.0087 5.48928 18.2865 13.614L18.9277 14.3814C28.5426 6.34627 38.8074 1.5 49.5 1.5V0.5ZM74.5424 19.3241C77.5221 21.8143 80.2393 24.4938 82.6297 27.1728L83.3758 26.507C80.9559 23.795 78.204 21.0809 75.1836 18.5568L74.5424 19.3241ZM49.5006 8.37566C57.7114 8.37566 66.2623 12.4045 74.5424 19.3241L75.1836 18.5568C66.8089 11.5581 58.037 7.37566 49.5006 7.37566V8.37566ZM24.4588 19.3241C32.7388 12.4045 41.2897 8.37566 49.5006 8.37566V7.37566C40.9642 7.37566 32.1922 11.5581 23.8175 18.5568L24.4588 19.3241ZM16.3714 27.1728C18.7619 24.4938 21.479 21.8143 24.4588 19.3241L23.8175 18.5568C20.7971 21.0809 18.0452 23.795 15.6253 26.507L16.3714 27.1728ZM14.9431 28.822C15.3786 28.3029 15.8553 27.7513 16.3714 27.1728L15.6253 26.507C15.1025 27.0929 14.6192 27.6522 14.177 28.1793L14.9431 28.822ZM16.3714 29.8285C15.8553 29.25 15.3786 28.6984 14.9431 28.1793L14.177 28.822C14.6192 29.3491 15.1025 29.9084 15.6253 30.4943L16.3714 29.8285ZM24.4588 37.6772C21.479 35.187 18.7619 32.5075 16.3714 29.8285L15.6253 30.4943C18.0452 33.2063 20.7971 35.9204 23.8175 38.4445L24.4588 37.6772ZM49.5006 48.6256C41.2897 48.6256 32.7388 44.5968 24.4588 37.6772L23.8175 38.4445C32.1922 45.4432 40.9642 49.6256 49.5006 49.6256V48.6256ZM74.5424 37.6772C66.2623 44.5968 57.7114 48.6256 49.5006 48.6256V49.6256C58.037 49.6256 66.8089 45.4432 75.1836 38.4445L74.5424 37.6772ZM82.6297 29.8285C80.2393 32.5075 77.5221 35.187 74.5424 37.6772L75.1836 38.4445C78.204 35.9204 80.9559 33.2063 83.3758 30.4943L82.6297 29.8285ZM84.058 28.1793C83.6225 28.6984 83.1459 29.25 82.6297 29.8285L83.3758 30.4943C83.8986 29.9084 84.3819 29.3491 84.8241 28.822L84.058 28.1793ZM82.6297 27.1728C83.1459 27.7513 83.6225 28.3029 84.058 28.822L84.8241 28.1793C84.3819 27.6522 83.8986 27.0929 83.3758 26.507L82.6297 27.1728ZM49.5001 41.7497C40.9177 41.7497 34.0889 35.7515 34.0889 28.4997H33.0889C33.0889 36.4358 40.5075 42.7497 49.5001 42.7497V41.7497ZM64.9114 28.4997C64.9114 35.7515 58.0826 41.7497 49.5001 41.7497V42.7497C58.4928 42.7497 65.9114 36.4358 65.9114 28.4997H64.9114ZM49.5001 15.2497C58.0826 15.2497 64.9114 21.248 64.9114 28.4997H65.9114C65.9114 20.5636 58.4928 14.2497 49.5001 14.2497V15.2497ZM34.0889 28.4997C34.0889 21.248 40.9177 15.2497 49.5001 15.2497V14.2497C40.5075 14.2497 33.0889 20.5636 33.0889 28.4997H34.0889ZM49.5001 35.8748C54.099 35.8748 57.9557 32.6389 57.9557 28.4998H56.9557C56.9557 31.9546 53.6887 34.8748 49.5001 34.8748V35.8748ZM41.0444 28.4998C41.0444 32.6389 44.9012 35.8748 49.5001 35.8748V34.8748C45.3114 34.8748 42.0444 31.9546 42.0444 28.4998H41.0444ZM49.5001 21.1248C44.9012 21.1248 41.0444 24.3607 41.0444 28.4998H42.0444C42.0444 25.045 45.3114 22.1248 49.5001 22.1248V21.1248ZM57.9557 28.4998C57.9557 24.3607 54.099 21.1248 49.5001 21.1248V22.1248C53.6887 22.1248 56.9557 25.045 56.9557 28.4998H57.9557Z" fill="#FCFDF9"/>
</g>
<defs>
<filter id="filter0_d_128_1731" x="0.37793" y="0.5" width="98.2441" height="64" filterUnits="userSpaceOnUse" color-interpolation-filters="sRGB">
<feFlood flood-opacity="0" result="BackgroundImageFix"/>
<feColorMatrix in="SourceAlpha" type="matrix" values="0 0 0 0 0 0 0 0 0 0 0 0 0 0 0 0 0 0 127 0" result="hardAlpha"/>
<feOffset dy="4"/>
<feGaussianBlur stdDeviation="2"/>
<feComposite in2="hardAlpha" operator="out"/>
<feColorMatrix type="matrix" values="0 0 0 0 0 0 0 0 0 0 0 0 0 0 0 0 0 0 0.25 0"/>
<feBlend mode="normal" in2="BackgroundImageFix" result="effect1_dropShadow_128_1731"/>
<feBlend mode="normal" in="SourceGraphic" in2="effect1_dropShadow_128_1731" result="shape"/>
</filter>
</defs>
</svg>
