<svg width="31" height="30" viewBox="0 0 31 30" fill="none" xmlns="http://www.w3.org/2000/svg">
<path d="M24.6923 7.49641V7.49734C24.6923 8.42922 23.9367 9.18391 23.0058 9.18391C22.0748 9.18391 21.3192 8.42828 21.3192 7.49734C21.3192 6.56547 22.0748 5.81078 23.0058 5.81078C23.9367 5.81172 24.6914 6.56547 24.6923 7.49641ZM15.5002 19.6867C12.9117 19.6867 10.8136 17.5886 10.8136 15.0002C10.8136 12.4117 12.9117 10.3136 15.5002 10.3136C18.0886 10.3136 20.1867 12.4117 20.1867 15.0002V15.0011C20.1867 17.5886 18.0895 19.6858 15.502 19.6858H15.5011L15.5002 19.6867ZM15.5002 7.78141C11.513 7.78141 8.28141 11.0139 8.28141 15.0002C8.28141 18.9864 11.5139 22.2189 15.5002 22.2189C19.4873 22.2189 22.7189 18.9864 22.7189 15.0002C22.7189 15.0002 22.7189 15.0002 22.7189 14.9992C22.7189 11.013 19.4873 7.78047 15.5002 7.78047C15.5002 7.78047 15.5002 7.78047 15.4992 7.78047L15.5002 7.78141ZM15.5002 3.47266C19.253 3.47266 19.7002 3.49141 21.1823 3.55609C22.1227 3.56734 23.017 3.74547 23.8448 4.06047L23.7914 4.04266C25.0233 4.52266 25.9795 5.47891 26.4492 6.67891L26.4605 6.71078C26.7567 7.48516 26.933 8.38047 26.9442 9.31516V9.31984C27.0108 10.803 27.0258 11.2483 27.0258 15.002C27.0258 18.7558 27.008 19.202 26.9395 20.6842C26.9217 21.6255 26.7427 22.5198 26.4286 23.3477L26.4464 23.2933C26.2045 23.927 25.8464 24.467 25.3936 24.9114L25.3927 24.9123C24.9492 25.3661 24.4092 25.7242 23.8064 25.952L23.7764 25.9623C22.9992 26.2586 22.1011 26.4348 21.1627 26.4461H21.158C19.6655 26.5127 19.2258 26.5277 15.4655 26.5277C11.7033 26.5277 11.2645 26.5098 9.77297 26.4414C8.82797 26.4236 7.92984 26.2445 7.09828 25.9305L7.15359 25.9483C6.51984 25.7102 5.97984 25.3511 5.53922 24.8964L5.53828 24.8955C5.07984 24.4548 4.71984 23.9139 4.49391 23.3083L4.48453 23.2792C4.18922 22.503 4.01016 21.6058 3.99234 20.6683V20.6608C3.93984 19.1842 3.92109 18.7286 3.92109 14.9861C3.92109 11.2417 3.93984 10.7852 3.99234 9.29078C4.01016 8.34672 4.18828 7.44953 4.50234 6.61891L4.48453 6.67422C4.71609 6.03766 5.07703 5.49578 5.53734 5.05797L5.53922 5.05609C5.97797 4.59484 6.51891 4.23578 7.12547 4.01359L7.15453 4.00422C7.92609 3.70609 8.81766 3.52703 9.74953 3.51109H9.75609C11.2495 3.45859 11.6892 3.44078 15.4486 3.44078L15.5002 3.47266ZM15.5002 0.941406C11.6808 0.941406 11.2045 0.959219 9.70453 1.02578C8.47172 1.05203 7.30266 1.29016 6.22078 1.70359L6.29203 1.68016C5.31703 2.05234 4.48641 2.60453 3.80203 3.30016L3.80109 3.30109C3.10266 3.98547 2.55141 4.81703 2.19516 5.74516L2.17922 5.79203C1.78922 6.80266 1.55109 7.97266 1.52578 9.19328V9.20453C1.45547 10.7045 1.44141 11.1808 1.44141 15.0002C1.44141 18.8195 1.45922 19.2958 1.52578 20.7958C1.55203 22.0286 1.79016 23.1977 2.20359 24.2795L2.18016 24.2083C2.92641 26.103 4.39734 27.5739 6.24328 28.3033L6.29203 28.3202C7.30266 28.7092 8.47266 28.9473 9.69328 28.9736H9.70453C11.2045 29.0439 11.6808 29.058 15.5002 29.058C19.3195 29.058 19.7958 29.0402 21.2958 28.9736C22.5286 28.9464 23.6977 28.7092 24.7795 28.2958L24.7083 28.3202C26.603 27.5739 28.0739 26.103 28.8033 24.257L28.8202 24.2083C29.2102 23.1977 29.4473 22.0277 29.4736 20.807V20.7958C29.5439 19.2958 29.558 18.8195 29.558 15.0002C29.558 11.1808 29.5402 10.7045 29.4736 9.20453C29.4464 7.97172 29.2092 6.80266 28.7958 5.72078L28.8202 5.79203C28.447 4.81703 27.8958 3.98641 27.1992 3.30203L27.1983 3.30109C26.5139 2.60266 25.6823 2.05141 24.7542 1.69516L24.7073 1.67922C23.6967 1.28922 22.5267 1.05109 21.3061 1.02578H21.2948C19.7948 0.955469 19.3186 0.941406 15.4992 0.941406H15.5002Z" fill="#769703"/>
</svg>
