<svg width="31" height="30" viewBox="0 0 31 30" fill="none" xmlns="http://www.w3.org/2000/svg">
<g clip-path="url(#clip0_141_332)">
<path d="M26.125 2.5626H4.875C4.63177 2.55421 4.38935 2.59489 4.16218 2.68221C3.93501 2.76953 3.72775 2.90171 3.55277 3.07086C3.37779 3.24001 3.23867 3.44266 3.1437 3.66674C3.04873 3.89082 2.99986 4.13173 3 4.3751V25.6876C2.99986 25.931 3.04873 26.1719 3.1437 26.396C3.23867 26.62 3.37779 26.8227 3.55277 26.9918C3.72775 27.161 3.93501 27.2932 4.16218 27.3805C4.38935 27.4678 4.63177 27.5085 4.875 27.5001H26.125C26.6057 27.5001 27.0667 27.3091 27.4066 26.9692C27.7465 26.6293 27.9375 26.1683 27.9375 25.6876V4.3751C27.9375 3.8944 27.7465 3.43338 27.4066 3.09347C27.0667 2.75356 26.6057 2.5626 26.125 2.5626ZM10.4375 23.8126H6.6875V11.9376H10.4375V23.8126ZM8.5625 10.3126C7.99324 10.2963 7.45277 10.0587 7.05595 9.65021C6.65914 9.24173 6.43727 8.69459 6.4375 8.1251C6.4375 7.56152 6.66138 7.02101 7.0599 6.6225C7.45841 6.22398 7.99892 6.0001 8.5625 6.0001C9.12609 6.0001 9.66659 6.22398 10.0651 6.6225C10.4636 7.02101 10.6875 7.56152 10.6875 8.1251C10.6877 8.69459 10.4659 9.24173 10.069 9.65021C9.67224 10.0587 9.13176 10.2963 8.5625 10.3126ZM24.25 23.8126H20.5625V18.0001C20.5625 16.6251 20.5625 14.8751 18.625 14.8751C16.6875 14.8751 16.4375 16.3751 16.4375 17.9376V23.8126H12.75V11.9376H16.25V13.5626H16.3125C16.6645 12.9518 17.1764 12.4487 17.7931 12.1073C18.4099 11.7659 19.1081 11.5992 19.8125 11.6251C23.5625 11.6251 24.25 14.0626 24.25 17.3126V23.8126Z" fill="#769703"/>
</g>
<defs>
<clipPath id="clip0_141_332">
<rect width="30" height="30" fill="white" transform="translate(0.5)"/>
</clipPath>
</defs>
</svg>
