<svg width="35" height="35" viewBox="0 0 35 35" fill="none" xmlns="http://www.w3.org/2000/svg">
<g clip-path="url(#clip0_141_325)">
<path d="M29.167 10.9373C29.167 11.0832 29.167 11.3748 29.167 11.8123C29.167 19.6873 23.042 28.8748 12.1045 28.8748C8.75033 29.0207 5.54199 27.854 2.91699 26.2498C3.35449 26.2498 3.93783 26.2498 4.37533 26.2498C7.14616 26.2498 9.77116 25.229 11.9587 23.7707C9.18783 23.7707 7.14616 21.8748 6.27116 19.5415C6.70866 19.5415 7.14616 19.6873 7.29199 19.6873C7.87533 19.6873 8.31283 19.6873 8.89616 19.5415C6.12533 18.9582 4.08366 16.6248 4.08366 13.7082C4.95866 14.1457 5.83366 14.2915 6.85449 14.5832C5.25033 13.1248 4.08366 11.3748 4.08366 9.33317C4.08366 8.31234 4.22949 7.2915 4.95866 6.4165C7.87533 9.9165 12.2503 12.5415 17.2087 12.6873C17.2087 12.2498 17.0628 11.8123 17.0628 11.229C17.0628 7.87484 19.8337 5.104 23.1878 5.104C24.792 5.104 26.542 5.68734 27.5628 6.99984C29.0212 6.854 30.3337 6.12484 31.3545 5.5415C30.917 6.99984 29.8962 8.02067 28.5837 8.89567C29.7503 8.74984 30.917 8.45817 32.0837 7.87484C31.3545 9.18734 30.1878 10.2082 29.167 10.9373Z" fill="#769703"/>
</g>
<defs>
<clipPath id="clip0_141_325">
<rect width="35" height="35" fill="white"/>
</clipPath>
</defs>
</svg>
